<svg width="1200" height="630" viewBox="0 0 1200 630" fill="none" xmlns="http://www.w3.org/2000/svg">
  <rect width="1200" height="630" fill="url(#paint0_linear)" />
  
  <!-- Background patterns -->
  <circle cx="200" cy="300" r="150" fill="url(#paint1_radial)" opacity="0.3" />
  <circle cx="1000" cy="200" r="120" fill="url(#paint2_radial)" opacity="0.3" />
  <circle cx="600" cy="500" r="180" fill="url(#paint3_radial)" opacity="0.3" />
  
  <!-- Logo -->
  <circle cx="600" cy="250" r="80" fill="white" opacity="0.9" />
  <path d="M600 210C588.954 210 580 218.954 580 230V250C580 261.046 588.954 270 600 270C611.046 270 620 261.046 620 250V230C620 218.954 611.046 210 600 210Z" stroke="#6366F1" stroke-width="8"/>
  <path d="M635 240V250C635 269.33 619.33 285 600 285C580.67 285 565 269.33 565 250V240" stroke="#6366F1" stroke-width="8"/>
  <line x1="600" y1="285" x2="600" y2="300" stroke="#6366F1" stroke-width="8"/>
  
  <!-- Title -->
  <text x="600" y="380" font-family="Arial, sans-serif" font-size="60" font-weight="bold" fill="white" text-anchor="middle">Jungian Dream Analyzer</text>
  
  <!-- Subtitle -->
  <text x="600" y="440" font-family="Arial, sans-serif" font-size="30" fill="white" opacity="0.8" text-anchor="middle">Reveal the symbols and archetypes in your dreams</text>
  
  <defs>
    <linearGradient id="paint0_linear" x1="0" y1="0" x2="1200" y2="630" gradientUnits="userSpaceOnUse">
      <stop stop-color="#4F46E5" />
      <stop offset="1" stop-color="#7E22CE" />
    </linearGradient>
    <radialGradient id="paint1_radial" cx="0" cy="0" r="1" gradientUnits="userSpaceOnUse" gradientTransform="translate(200 300) rotate(90) scale(150)">
      <stop stop-color="white" />
      <stop offset="1" stop-color="white" stop-opacity="0" />
    </radialGradient>
    <radialGradient id="paint2_radial" cx="0" cy="0" r="1" gradientUnits="userSpaceOnUse" gradientTransform="translate(1000 200) rotate(90) scale(120)">
      <stop stop-color="white" />
      <stop offset="1" stop-color="white" stop-opacity="0" />
    </radialGradient>
    <radialGradient id="paint3_radial" cx="0" cy="0" r="1" gradientUnits="userSpaceOnUse" gradientTransform="translate(600 500) rotate(90) scale(180)">
      <stop stop-color="white" />
      <stop offset="1" stop-color="white" stop-opacity="0" />
    </radialGradient>
  </defs>
</svg> 